<?xml version="1.0" encoding="utf-8"?>
<!-- Generator: Adobe Illustrator 27.2.0, SVG Export Plug-In . SVG Version: 6.00 Build 0)  -->
<svg version="1.1" id="Ebene_1" xmlns="http://www.w3.org/2000/svg" xmlns:xlink="http://www.w3.org/1999/xlink" x="0px" y="0px"
	 viewBox="0 0 283.2 71.3" style="enable-background:new 0 0 283.2 71.3;" xml:space="preserve">
<style type="text/css">
	.st0{fill:#fefffa;}
</style>
<g>
	<path class="st0" d="M42.1,57.5H10.9v9.2c0,1.8-0.8,3-2,3.4c-0.6,0.2-2,0.3-4.3,0.3c-2.5,0-3.8-1.2-3.8-3.7V25.9
		c0-5.5,2.6-9.4,7.9-11.5c3.4-1.4,8.4-2,15.1-2h15.9c16,0,24,4.5,24,13.3v17.7C63.7,52.8,56.5,57.5,42.1,57.5z M53.6,25.9
		c0-2.4-1.9-4-5.5-4.8c-1.6-0.3-4.3-0.4-8.3-0.4H24.1c-8.9,0-13.2,1.8-13.2,5.3v23h31.2c7.7,0,11.5-1.9,11.5-5.6L53.6,25.9
		L53.6,25.9z"/>
	<path class="st0" d="M76.2,57.8c-2.3,0-3.7-0.2-4.3-0.4c-1.4-0.4-2-1.6-2-3.4V3.7c0-2.4,1.3-3.7,3.8-3.7c2.3,0,3.7,0.1,4.3,0.3
		c1.4,0.5,2,1.6,2,3.4v50.4C80,56.6,78.7,57.8,76.2,57.8z"/>
	<path class="st0" d="M146.1,40H96.2c-0.3,6.3,4.8,9.5,15.4,9.5h2.7c1.2,0,1.9-0.1,2.4-0.1c2.4,0,3.7,1.6,3.7,4.7
		c0,2.5-1.3,3.8-3.7,3.8c-6.5,0-10.9-0.1-13-0.4c-5.5-0.5-9.6-1.8-12.3-3.9c-3.7-2.9-5.5-6.2-5.5-10.1V26.7c0-5.3,2.9-9.1,8.7-11.7
		c4.2-1.8,9.3-2.8,15.4-2.8h18.7c5.1,0,9.3,0.9,13,2.6c4.9,2.2,7.2,5.5,7.2,10v11C148.8,38.6,147.9,39.9,146.1,40L146.1,40z
		 M139.1,25.7c0-3.4-6.8-5.1-20.4-5.1c-1.7,0-3.4,0-5.3,0.1c-1.8,0-2.5,0.1-2.3,0.1c-10.1,0-15.2,1.8-15.2,5.3v5.3h43.2L139.1,25.7
		L139.1,25.7z"/>
</g>
<path class="st0" d="M215.3,12.4h-39.8c-14.2,0-21.3,4.6-21.3,13.8V44c0,5.7,2.6,9.6,8,11.8c3.5,1.4,8.7,2,15.5,2h2v9.1
	c0,0,0,4.9,4.2,2.4l23.3-13.7c0,0,4.2-2.5-0.1-4.9l-23.2-13c0,0-4.3-2.4-4.3,2.5v9.2H178c-9.1,0-13.7-1.9-13.7-5.7V25.8
	c0-3.4,4-5.1,12.1-5.1h39c2.5,0,3.9-1.5,3.9-4.3S217.9,12.3,215.3,12.4L215.3,12.4z"/>
<path class="st0" d="M264.5,30.4h-16.6c-3.6,0-6-0.1-7.3-0.3c-3.5-0.6-5.2-1.8-5.2-3.8V24c0-1.7,1.7-2.7,5-3.1
	c0.8-0.1,3.1-0.1,6.8-0.1h7.2c2.5,0,3.7-1.3,3.7-3.8v-1c0-2.4-1.2-3.7-3.7-3.7c-8.7,0-14.5,0.3-17.6,0.9
	c-7.6,1.7-11.4,5.2-11.4,10.8v2.4c0,8.4,7.5,12.6,22.5,12.6h16.2c5.7,0,8.6,1.4,8.6,4.2v1.7c0,3.1-3.1,4.6-9.4,4.6h-43.9
	c-0.1,0-0.3,0-0.4,0V40c0-1.4-0.5-2.3-1.7-2.7c-0.5-0.2-1.7-0.2-3.7-0.2c-2,0-3.2,1-3.2,2.9v27c0,1.5,0.6,2.4,1.7,2.7
	c0.5,0.2,1.7,0.3,3.7,0.3c2.2,0,3.2-1,3.2-3v-9.2c0.1,0,0.3,0,0.4,0h43.9c13.2,0,19.8-4.4,19.8-13v-2
	C283,34.6,276.8,30.5,264.5,30.4L264.5,30.4z"/>
</svg>
