<?xml version="1.0" encoding="UTF-8" standalone="no"?>
<svg
   width="2500"
   height="438.48965"
   viewBox="0 0 192.756 33.808605"
   version="1.1"
   id="svg4"
   sodipodi:docname="zuken.svg"
   inkscape:version="1.3.2 (091e20e, 2023-11-25, custom)"
   xmlns:inkscape="http://www.inkscape.org/namespaces/inkscape"
   xmlns:sodipodi="http://sodipodi.sourceforge.net/DTD/sodipodi-0.dtd"
   xmlns="http://www.w3.org/2000/svg"
   xmlns:svg="http://www.w3.org/2000/svg">
  <defs
     id="defs4" />
  <sodipodi:namedview
     id="namedview4"
     pagecolor="#ffffff"
     bordercolor="#000000"
     borderopacity="0.25"
     inkscape:showpageshadow="2"
     inkscape:pageopacity="0.0"
     inkscape:pagecheckerboard="0"
     inkscape:deskcolor="#d1d1d1"
     inkscape:zoom="0.3284"
     inkscape:cx="1432.704"
     inkscape:cy="123.32521"
     inkscape:window-width="1920"
     inkscape:window-height="1017"
     inkscape:window-x="1912"
     inkscape:window-y="-8"
     inkscape:window-maximized="1"
     inkscape:current-layer="svg4" />
  <g
     fill-rule="evenodd"
     clip-rule="evenodd"
     id="g4"
     transform="translate(-0.11739099,-81.586736)">
    <path
       fill="transparent"
       d="M 0.11739099,81.586736 H 192.87339 L 192.756,115.39534 0.11739099,115.27795 Z"
       id="path1"
       sodipodi:nodetypes="ccccc" />
    <path
       fill="#fefffa"
       d="m 58.859,108.647 -1.679,-0.136 -1.917,-0.347 -2.138,-0.581 -2.298,-0.877 -1.193,-0.618 -1.791,-1.158 -1.586,-1.359 -1.102,-1.164 -0.674,-1.139 -0.406,-1.18 L 43.9,97.996 V 87.268 l 0.016,-2.931 0.106,-0.347 0.331,-0.128 1.807,0.075 5.432,0.022 0.118,0.106 0.091,0.546 -0.044,3.565 v 10.879 l 0.037,1.773 0.16,0.976 0.271,0.634 0.906,1.133 0.968,0.847 1.314,0.725 1.111,0.476 1.427,0.384 0.983,0.15 1.283,0.078 1.821,-0.221 1.775,-0.49 1.686,-0.808 1.276,-0.99 0.815,-0.996 0.394,-0.741 0.187,-0.717 0.131,-1.005 0.028,-6.543 0.031,-0.921 -0.031,-1.179 v -2.176 l 0.023,-2.439 v -2.713 l 0.22,-0.227 0.581,-0.028 1.186,0.059 5.431,0.007 0.356,0.106 0.098,0.302 -0.045,2.017 0.014,1.541 v 5.198 l -0.075,5.007 -0.173,1.777 -0.477,1.336 -0.996,1.498 -1.202,1.29 -1.397,1.095 -1.655,1.067 -1.723,0.768 -2.213,0.734 -2.598,0.574 -2.032,0.234 -1.308,0.053 -0.868,0.007 z m 114.627,-0.031 -5.976,-0.066 -0.301,-0.152 -2.721,-3.171 -4.554,-5.417 -2.577,-3.09 -0.734,-0.855 -2.076,-2.454 -3.264,-3.786 -0.142,-0.06 -0.121,0.047 -0.084,0.362 -0.03,5.878 0.024,1.97 -0.047,0.839 0.031,0.59 -0.047,6.827 -0.111,2.304 -0.129,0.1 -7.473,0.022 -0.181,-0.047 -0.098,-0.128 0.023,-6.601 0.006,-0.604 0.016,-0.883 0.016,-11.31 0.009,-3.921 0.127,-0.324 0.332,-0.115 1.948,0.053 5.185,0.031 0.272,0.181 2.4,2.81 2.184,2.578 2.017,2.515 0.5,0.635 5.219,6.111 3.246,3.778 0.537,0.618 0.145,0.059 0.129,-0.044 0.082,-0.372 0.046,-3.193 0.045,-6.814 0.016,-0.612 0.021,-0.861 -0.052,-1.595 0.06,-1.058 0.024,-4.449 0.082,-0.143 0.355,-0.097 1.489,0.052 0.58,-0.015 5.191,0.029 0.182,0.046 0.095,0.128 -0.021,5.84 v 1.278 l -0.022,0.845 -0.037,9.525 -0.062,1.164 0.078,2.1 -0.1,2.772 -0.107,0.122 -0.383,0.066 z m -33.291,-1.124 -0.484,0.574 -0.424,0.257 -7.764,-0.015 -6.589,-0.076 -3.604,-0.038 -2.816,-0.355 -1.231,-0.356 -1.345,-0.693 -1.352,-0.915 -1.586,-1.36 -0.871,-0.944 -1.057,-1.435 -0.859,-1.633 -0.516,-1.525 -0.345,-1.917 -0.024,-1.549 0.301,-1.966 0.637,-2.083 0.957,-1.761 0.974,-1.292 1.102,-1.164 1.096,-0.943 0.781,-0.583 1.383,-0.657 1.404,-0.408 1.351,-0.234 8.188,0.006 1.988,0.047 4.223,0.053 0.785,-0.031 1.783,0.015 5.393,0.031 0.303,0.091 -0.022,0.112 -2.17,2.395 -0.324,0.128 -4.592,-0.038 -8.703,-0.037 -1.51,0.075 -0.877,0.258 -1.134,0.453 -1.51,0.983 -1.336,1.381 -0.75,1.066 -0.543,1.056 -0.016,0.356 0.303,0.159 3.99,0.084 8.453,0.06 0.989,0.022 1.57,-0.06 0.832,0.075 2.041,-0.075 2.234,0.106 0.061,0.091 -0.19,0.234 -1.736,1.904 -0.5,0.406 -0.853,0.053 -6.028,-0.044 -0.771,0.044 -0.846,-0.06 -9.736,-0.022 -0.387,0.067 -0.105,0.121 -0.038,0.65 0.166,1.201 0.409,1.405 0.672,1.367 0.748,1.065 1.086,1.18 1.55,1.17 1.623,0.869 1.209,0.377 1.362,0.234 3.873,0.047 4.111,0.044 7.063,0.052 0.113,0.084 -0.014,0.123 z"
       id="path2" />
    <path
       fill="#fefffa"
       d="m 111.209,108.119 -6.609,-0.03 -1.188,-0.031 -0.551,0.024 -0.463,-0.222 -5.166,-5.028 -2.424,-2.335 -1.458,-1.489 -1.64,-1.532 -1.972,-1.883 -1.29,-1.208 -0.287,-0.135 -1.239,0.535 -0.212,0.243 -0.113,0.777 0.053,0.824 -0.068,1.593 -0.031,3.824 0.015,2 -0.031,3.597 -0.037,0.159 -0.106,0.121 -0.406,0.053 -4.149,-0.032 -1.149,0.024 -1.745,-0.07 -0.172,-0.05 -0.1,-0.13 0.01,-11.007 0.044,-3.55 0.03,-8.809 0.107,-0.119 0.385,-0.068 7.244,0.022 0.128,0.099 0.038,0.868 -0.044,4.124 0.044,1.096 -0.007,1.511 0.106,0.355 0.128,0.06 0.959,-0.369 7.729,-3.605 5.862,-2.75 1.064,-0.521 1.564,-0.687 4.645,0.053 0.1,0.075 -0.174,0.181 -6.664,3.099 -3.709,1.73 -2.463,1.177 -0.104,0.121 -0.024,0.144 0.174,0.272 1.581,1.601 1.744,1.655 1.404,1.314 4.955,4.797 2.047,2.023 2.176,2.132 1.293,1.208 2.07,2.01 -0.015,0.106 -0.303,0.091 z m -72.203,-0.468 -0.846,-0.062 -0.764,0.015 -8.664,-0.043 -0.845,-0.047 -0.899,0.022 -9.783,-0.059 -6.331,-0.038 -0.175,-0.046 -0.074,-0.097 0.355,-0.522 0.965,-1.074 5.35,-5.98 2.893,-3.228 1.443,-1.511 0.619,-0.143 3.149,0.037 7.411,0.016 0.19,0.046 0.075,0.106 -0.135,0.287 -1.127,1.155 -1.08,1.187 -3.399,3.852 -2.425,2.809 -0.031,0.159 0.062,0.138 0.369,0.097 2.069,0.053 10.879,0.037 0.952,0.031 3.574,0.015 0.18,0.045 0.076,0.099 -0.135,0.287 -1.956,2.137 -0.266,0.189 -1.089,0.044 z m 147.232,-4.609 -0.521,-1.065 -0.695,-0.89 -0.635,-0.5 -0.861,-0.499 -1.262,-0.324 -1.09,-0.016 -1.244,0.34 -1.111,0.702 -0.861,0.952 -0.416,0.718 -0.354,1.232 -0.008,1.306 0.279,1.08 0.461,0.899 0.627,0.732 1.049,0.764 1.17,0.415 0.85,0.144 1.027,-0.113 1.191,-0.394 0.969,-0.618 0.664,-0.695 0.582,-1.005 0.295,-1.064 0.029,-1.33 z m -0.205,2.018 -0.385,1.2 -0.334,0.574 -0.512,0.62 -1.074,0.74 -0.799,0.331 -1.166,0.197 -1.162,-0.197 -0.816,-0.315 -0.914,-0.674 -0.537,-0.597 -0.498,-0.861 -0.258,-0.875 -0.09,-1.073 0.152,-0.967 0.406,-0.952 0.584,-0.777 0.717,-0.644 1.088,-0.497 0.732,-0.175 h 1.262 l 1.049,0.316 1.217,0.824 0.619,0.74 0.477,0.886 0.271,1.313 z"
       id="path3" />
    <path
       fill="#fefffa"
       d="m 183.797,106.843 -0.83,-1.679 -0.047,-0.34 0.084,-0.144 0.619,-0.52 0.324,-0.583 0.09,-0.597 -0.111,-0.574 -0.326,-0.581 -0.383,-0.296 -0.689,-0.219 -2.273,-0.149 -0.346,0.105 -0.086,0.15 -0.059,5.825 0.158,0.309 0.174,0.037 0.34,-0.112 0.09,-0.144 0.061,-2.207 0.189,-0.263 0.385,-0.077 0.604,0.084 0.242,0.212 0.967,1.979 0.25,0.431 0.361,0.112 0.426,-0.053 0.08,-0.112 -0.027,-0.152 z m -2.039,-2.729 -1.125,-0.302 -0.07,-1.05 0.039,-0.506 0.189,-0.249 0.596,-0.091 1.027,0.113 0.469,0.212 0.266,0.421 0.014,0.575 -0.219,0.468 -0.408,0.272 z M 33.809,92.452 h -1.586 l -1.368,-0.024 -0.583,0.015 -5.854,-0.052 -0.143,-0.06 -0.031,-0.106 0.371,-0.521 2.984,-3.363 1.268,-1.473 0.031,-0.128 -0.062,-0.113 -0.346,-0.106 -7.66,-0.046 h -0.756 l -0.868,-0.022 -8.083,-0.031 -0.355,-0.091 -0.053,-0.09 0.265,-0.393 1.745,-1.88 0.438,-0.243 3.595,0.015 1.308,0.054 11.044,0.03 3.837,0.038 9.814,0.022 0.143,0.062 0.029,0.106 -0.709,0.859 -2.251,2.509 -1.383,1.564 -1.057,1.208 -1.927,2.154 -0.324,0.128 z"
       id="path4" />
  </g>
</svg>
