<svg version="1.1" width="740" height="2287" id="Layer_1" xmlns="http://www.w3.org/2000/svg" xmlns:xlink="http://www.w3.org/1999/xlink" x="0px" y="0px" viewBox="0 0 740 2287" style="enable-background:new 0 0 740 2287;" xml:space="preserve" class="path-wrapper  svg--short3">
  <style type="text/css">
    .st01 {
      fill: #2BB065;
    }

    .st11 {
      fill: none;
      stroke: #EDFFF5;
      stroke-miterlimit: 10;
      stroke-width: 5;
    }

    .st21 {
      fill: none;
      stroke: #2BB065;
      stroke-width: 2;
      stroke-linecap: round;
      stroke-linejoin: round;
      stroke-miterlimit: 10;
      stroke-dasharray: 1.999, 5.997;
    }
  </style>
  <path class="st01 arrow" d="M361,2287l-11-18h22L361,2287z" style="opacity: 1;"></path>
  <path class="st21 " d="M360.9,2269c0,0-8.6-87.8,57.4-145.5s314.4-188.1,314.4-421.5S676,1344.9,372,1234.9S0,1000,0,846.2	S86.5,564,315.7,486.7S786.5,333.9,722,1"></path>
  <path class="st11 top-path" d="M360.9,2269c0,0-8.6-87.8,57.4-145.5s314.4-188.1,314.4-421.5S676,1344.9,372,1234.9S0,1000,0,846.2	S86.5,564,315.7,486.7S786.5,333.9,722,1" style="stroke-dashoffset: 3174px;"></path>
</svg>