<?xml version="1.0" encoding="UTF-8" standalone="no"?>
<svg
   viewBox="0 0 1457 804"
   version="1.1"
   id="svg3"
   sodipodi:docname="greenLineLarge1.svg"
   inkscape:version="1.3.1 (9b9bdc1480, 2023-11-25, custom)"
   xmlns:inkscape="http://www.inkscape.org/namespaces/inkscape"
   xmlns:sodipodi="http://sodipodi.sourceforge.net/DTD/sodipodi-0.dtd"
   xmlns="http://www.w3.org/2000/svg"
   xmlns:svg="http://www.w3.org/2000/svg">
  <defs
     id="defs3" />
  <sodipodi:namedview
     id="namedview3"
     pagecolor="#ffffff"
     bordercolor="#000000"
     borderopacity="0.25"
     inkscape:showpageshadow="2"
     inkscape:pageopacity="0.0"
     inkscape:pagecheckerboard="0"
     inkscape:deskcolor="#d1d1d1"
     inkscape:zoom="0.54355497"
     inkscape:cx="682.54366"
     inkscape:cy="474.653"
     inkscape:window-width="1848"
     inkscape:window-height="920"
     inkscape:window-x="72"
     inkscape:window-y="27"
     inkscape:window-maximized="1"
     inkscape:current-layer="svg3" />
  <path
     fill="#173f35"
     d="M 0,0.052 H 1069.5 V 229.5525 C 1069.5,299.79012 965.59057,402 887.5,402 h -329 c -85.53585,1 -168.954,79.63918 -168.954,149.01872 V 804 H 0 Z"
     id="path1"
     style="display:inline"
     sodipodi:nodetypes="ccccccccc" />
  <path
     d="M 445.843,804 H 329 V 589.923 c 0,-66.132 25.766,-128.301 72.515,-175.07 46.768,-46.749 108.938,-72.514 175.07,-72.514 H 788 V 459.182 H 576.585 c -34.92,0 -67.752,13.586 -92.444,38.297 -24.692,24.692 -38.298,57.524 -38.298,92.444 z"
     fill="#115b38"
     id="path3"
     sodipodi:nodetypes="ccscsccscsc"
     style="display:inline" />
  <path
     d="M 869.415,459.053 H 658 V 342.23 h 211.415 c 72.086,0 130.742,-58.656 130.742,-130.76 V 0.052 H 1117 v 211.415 c 0,136.52 -111.066,247.586 -247.585,247.586"
     fill="#115b38"
     id="path2"
     style="display:inline" />
</svg>
