<svg viewBox="0 0 1457 804" xmlns="http://www.w3.org/2000/svg">
  <g fill="none">
    <path fill="#173F35" d="M0 .052h1069.5v252.457L912.39 401H534.75L389.546 571.84V802L0 801.34z"></path>
    <path d="M869.415 459.053H658V342.23h211.415c72.086 0 130.742-58.656 130.742-130.76V.052H1117v211.415c0 136.52-111.066 247.586-247.585 247.586" fill="#115b38" fill-rule="nonzero"></path>
    <path d="M445.843 801.34H329V589.923c0-66.132 25.766-128.301 72.515-175.07 46.768-46.749 108.938-72.514 175.07-72.514H788v116.843H576.585c-34.92 0-67.752 13.586-92.444 38.297-24.692 24.692-38.298 57.524-38.298 92.444V801.34z" fill="#115b38" fill-rule="nonzero"></path>
  </g>
</svg>