<?xml version="1.0" encoding="UTF-8" standalone="no"?>
<svg
   class="w-auto h-full"
   viewBox="-183.3 17.8 700 750.00002"
   version="1.1"
   id="svg2"
   sodipodi:docname="greenLine6.svg"
   width="700"
   height="750"
   inkscape:version="1.3.1 (9b9bdc1480, 2023-11-25, custom)"
   xmlns:inkscape="http://www.inkscape.org/namespaces/inkscape"
   xmlns:sodipodi="http://sodipodi.sourceforge.net/DTD/sodipodi-0.dtd"
   xmlns="http://www.w3.org/2000/svg"
   xmlns:svg="http://www.w3.org/2000/svg">
  <defs
     id="defs2" />
  <sodipodi:namedview
     id="namedview2"
     pagecolor="#ffffff"
     bordercolor="#000000"
     borderopacity="0.25"
     inkscape:showpageshadow="2"
     inkscape:pageopacity="0.0"
     inkscape:pagecheckerboard="0"
     inkscape:deskcolor="#d1d1d1"
     inkscape:zoom="0.99614944"
     inkscape:cx="267.02821"
     inkscape:cy="332.27946"
     inkscape:window-width="1848"
     inkscape:window-height="920"
     inkscape:window-x="72"
     inkscape:window-y="27"
     inkscape:window-maximized="1"
     inkscape:current-layer="svg2" />
  <path
     fill="#173f35"
     d="M -183.3,767.8 H -11.319906 V 440.46787 c 0,-29.83232 23.512734,-54.51787 51.112505,-54.51787 H 299.76582 c 26.8,0 48.6,-21.9 48.6,-48.6 V 17.800003 L -183.3,17.8 Z"
     id="path1"
     sodipodi:nodetypes="ccssssccc" />
  <path
     fill="#115b38"
     d="m 401.86576,17.85 h -62.6 v 308.4 c 0.3,26.7 -21.3,48.4 -48.6,48.6 l -267.031522,-0.1 c -24.5999995,-0.009 -47.7,9.6 -65.1,27 -17.4,17.4 -27,40.5 -27,65.1 v 300.9 h 62.4999995 v -290.8 c 0,-13 5,-25.2 14.2999997,-34.4 9.2000008,-9.2 21.4000018,-14.30549 34.4000008,-14.3 l 236.731522,0.1 v -0.1 h 30.3 c 50.7,0 92.1,-41.4 92.1,-92.1 z"
     id="path2"
     sodipodi:nodetypes="ccccsssccscsccssc"
     style="display:inline" />
</svg>
