<svg class="w-auto h-full" xmlns="http://www.w3.org/2000/svg" viewBox="-183.3 17.8 417 577.1">
  <path fill="#173F35" d="M-183.3 595V391.7c0-24.6 20.7-47.7 38.2-65.1s40.5-27 65.1-27h213.8c26.8 0 48.6-21.9 48.6-48.6V18h-365.7v577z"></path>
  <path fill="#115B38" d="M214.7 17.8h-43.5v221.9c.3 26.7-21.3 48.4-48.6 48.6H-91.2c-24.6 0-47.7 9.6-65.1 27s-27 40.5-27 65.1v214.4h62.5V390.5c0-13 5-25.2 14.3-34.4 9.2-9.2 21.4-14.3 34.4-14.3h183.5v-.1h30.3c50.7 0 92.1-41.4 92.1-92.1V17.8h-19.1z"></path>
</svg>