<svg class="w-auto h-full md:h-auto md:w-full" xmlns="http://www.w3.org/2000/svg" viewBox="-230.4 -337.9 1551.3 1457">
  <path fill="#FEFFFA" d="M1320.9-337.9H464.5c-66.1 0-128.3 55.8-175.1 102.5-46.7 46.8-72.5 108.9-72.5 175.1v81.4h-.1v211.4c0 72.1-58.7 130.7-130.8 130.7h-316.4V-338h1551.3zM283.6 1121.6V770.1h.1V558.7c0-34.9 13.6-67.8 38.3-92.4 24.7-24.7 57.5-38.3 92.4-38.3h906.4v693.6H283.6z"></path>
  <path fill="#F7F7F7" d="M-230.4 333.3H56c71.7.7 129.9-57.1 130.8-130.7V-8.9h.1v-81.4c0-66.1 25.8-128.3 72.5-175.1 46.8-46.7 108.9-72.5 175.1-72.5h886.4V-221H434.5c-34.9 0-67.8 13.6-92.4 38.3-24.7 24.7-38.3 57.5-38.3 92.4v211.4h-.1v81.4c0 136.5-111.1 247.6-247.6 247.6h-286.4V333.3zM186.8 1121.6V660.1h.1v-81.4c0-66.1 25.8-128.3 72.5-175.1 46.8-46.7 108.9-72.5 175.1-72.5h886.4V448H434.5c-34.9 0-67.8 13.6-92.4 38.3-24.7 24.7-38.3 57.5-38.3 92.4v211.4h-.1v331.4H186.8z"></path>
</svg>