<svg viewBox="0 0 1455 804" xmlns="http://www.w3.org/2000/svg">
  <g fill="none">
    <path fill="#FEFFFA" d="M1457 400.696l-255.98.33-143.52 137.498V802H1457zM0 .052h1057.5v281.187L926.357 401h-423.34L387.98 571.84V802H0z"></path>
    <path d="M869.415 459.053H658V342.23h211.415c72.086 0 130.742-58.656 130.742-130.76V.052H1117v211.415c0 136.52-111.066 247.586-247.585 247.586m245.428 342.287H998V589.923c0-66.132 25.766-128.301 72.515-175.07 46.768-46.749 108.938-72.514 175.07-72.514H1457v116.843h-211.415c-34.92 0-67.752 13.586-92.444 38.297-24.692 24.692-38.298 57.524-38.298 92.444V801.34z" fill="#F7F7F7" fillRule="nonzero"></path>
    <path d="M445.843 801.34H329V589.923c0-66.132 25.766-128.301 72.515-175.07 46.768-46.749 108.938-72.514 175.07-72.514H788v116.843H576.585c-34.92 0-67.752 13.586-92.444 38.297-24.692 24.692-38.298 57.524-38.298 92.444V801.34z" fill="#F7F7F7" fillRule="nonzero"></path>
  </g>
</svg>