<?xml version="1.0" encoding="UTF-8" standalone="no"?>
<svg
   viewBox="0 0 1455 804"
   version="1.1"
   id="svg3"
   sodipodi:docname="borderLarge3.svg"
   inkscape:version="1.3.2 (091e20e, 2023-11-25, custom)"
   xmlns:inkscape="http://www.inkscape.org/namespaces/inkscape"
   xmlns:sodipodi="http://sodipodi.sourceforge.net/DTD/sodipodi-0.dtd"
   xmlns="http://www.w3.org/2000/svg"
   xmlns:svg="http://www.w3.org/2000/svg">
  <defs
     id="defs3" />
  <sodipodi:namedview
     id="namedview3"
     pagecolor="#ffffff"
     bordercolor="#000000"
     borderopacity="0.25"
     inkscape:showpageshadow="2"
     inkscape:pageopacity="0.0"
     inkscape:pagecheckerboard="0"
     inkscape:deskcolor="#d1d1d1"
     inkscape:zoom="0.25"
     inkscape:cx="1170"
     inkscape:cy="1262"
     inkscape:window-width="1920"
     inkscape:window-height="1017"
     inkscape:window-x="1912"
     inkscape:window-y="-8"
     inkscape:window-maximized="1"
     inkscape:current-layer="g3" />
  <g
     fill="none"
     id="g3">
    <path
       fill="#fefffa"
       d="m 1457,400.696 -255.98,0.33 -143.52,137.498 0.2582,265.41221 h 399.3709 z M 0,-4.3911928e-4 1057.5,0.00780583 V 281.239 L 926.357,401 H 503.017 L 387.98,571.84 388.10908,804.06529 -0.05876841,804.0376 Z"
       id="path1"
       sodipodi:nodetypes="ccccccccccccccc" />
    <path
       d="M 869.415,459.053 H 658 V 342.23 h 211.415 c 72.086,0 130.742,-58.656 130.742,-130.76 l 0,-211.46878125 h 116.8235 L 1117,211.467 c 0.01,136.52 -111.066,247.586 -247.585,247.586 m 245.7931,345.02522 -116.843,0.18255 L 998,589.923 c -0.11265,-66.1319 25.766,-128.301 72.515,-175.07 46.768,-46.749 108.938,-72.514 175.07,-72.514 H 1457 v 116.843 h -211.415 c -34.92,0 -67.752,13.586 -92.444,38.297 -24.692,24.692 -38.298,57.524 -38.298,92.444 z"
       fill="#f7f7f7"
       fillRule="nonzero"
       id="path2"
       sodipodi:nodetypes="cccssccscccscsccscsc" />
    <path
       d="M 445.71392,804.01537 328.98438,804.07006 329,589.923 c 0.005,-66.132 25.766,-128.301 72.515,-175.07 46.768,-46.749 108.938,-72.514 175.07,-72.514 H 788 V 459.182 H 576.585 c -34.92,0 -67.752,13.586 -92.444,38.297 -24.692,24.692 -38.298,57.524 -38.298,92.444 z"
       fill="#f7f7f7"
       fillRule="nonzero"
       id="path3"
       sodipodi:nodetypes="ccscsccscsc" />
  </g>
</svg>
